<svg xmlns="http://www.w3.org/2000/svg" width="45" height="42.378" viewBox="0 0 45 42.378">
  <g id="グループ_1905" data-name="グループ 1905" transform="translate(-301.325 -26.998)">
    <text id="Settings" transform="translate(301.325 66.376)" fill="#4f9dbc" font-size="12" font-family="Helvetica" letter-spacing="0.012em"><tspan x="0" y="0">Settings</tspan></text>
    <path id="path" d="M24.216,5.015h0a3.383,3.383,0,0,1,0,6.4V25.359a1.143,1.143,0,1,1-2.286,0V11.415a3.383,3.383,0,0,1,0-6.4V3.643a1.143,1.143,0,1,1,2.286,0V5.015ZM23.073,9.358a1.08,1.08,0,0,0,1.143-1.143,1.143,1.143,0,0,0-2.286,0,1.08,1.08,0,0,0,1.143,1.143Zm-16,1.943h0a3.383,3.383,0,0,1,0,6.4v7.658A1.08,1.08,0,0,1,5.929,26.5a1.08,1.08,0,0,1-1.143-1.143V17.7a3.383,3.383,0,0,1,0-6.4V3.643A1.08,1.08,0,0,1,5.929,2.5,1.08,1.08,0,0,1,7.072,3.643V11.3ZM5.929,15.644a1.143,1.143,0,1,0,0-2.286,1.143,1.143,0,1,0,0,2.286Zm9.715-12V17.587a3.383,3.383,0,0,1,0,6.4v1.372a1.143,1.143,0,1,1-2.286,0V23.988a3.383,3.383,0,0,1,0-6.4V3.643a1.143,1.143,0,1,1,2.286,0ZM14.5,21.93a1.143,1.143,0,1,0-1.143-1.143A1.08,1.08,0,0,0,14.5,21.93Z" transform="translate(307.498 24.498)" fill="#305f72"/>
  </g>
</svg>
